<svg width="16" height="16" viewBox="0 0 16 16" fill="none" xmlns="http://www.w3.org/2000/svg">
<path d="M16 8.02939C16 3.59492 12.4182 0 8 0C3.58176 0 0 3.59492 0 8.02939C0 11.7948 2.58304 14.9546 6.06752 15.8224V10.4832H4.41792V8.02939H6.06752V6.97208C6.06752 4.2392 7.29984 2.97248 9.97312 2.97248C10.48 2.97248 11.3546 3.07236 11.7123 3.17193V5.39607C11.5235 5.37616 11.1955 5.3662 10.7882 5.3662C9.47648 5.3662 8.9696 5.86499 8.9696 7.16157V8.02939H11.5827L11.1338 10.4832H8.9696V16C12.9302 15.5198 16 12.1347 16 8.02939Z" fill="#E1E1CA"/>
</svg>
